<mxfile host="app.diagrams.net" modified="2024-04-12T08:22:56.442Z" agent="Mozilla/5.0 (Macintosh; Intel Mac OS X 10_15_7) AppleWebKit/537.36 (KHTML, like Gecko) Chrome/123.0.0.0 Safari/537.36" etag="KXDjxgKDBvKtlSO6Rv_U" version="24.0.7" type="github">
  <diagram name="第 1 页" id="KWbGK-V7QiRZe4iRqUCV">
    <mxGraphModel dx="1203" dy="776" grid="1" gridSize="10" guides="1" tooltips="1" connect="1" arrows="1" fold="1" page="1" pageScale="1" pageWidth="1654" pageHeight="2336" math="0" shadow="0">
      <root>
        <mxCell id="0" />
        <mxCell id="1" parent="0" />
      </root>
    </mxGraphModel>
  </diagram>
</mxfile>
